<svg width="373" height="47" viewBox="0 0 373 47" fill="none" xmlns="http://www.w3.org/2000/svg">
<path d="M48.024 46H37.72L33.624 35.952H14.68L10.584 46H0.536L19.736 0.879997H28.824L48.024 46ZM30.104 27.248L24.152 12.72L18.2 27.248H30.104ZM93.6585 46H82.1385L72.5385 31.664H64.7945V46H54.9385V1.2H75.4185C80.7518 1.2 84.8905 2.50133 87.8345 5.104C90.8212 7.70667 92.3145 11.3333 92.3145 15.984V16.112C92.3145 19.7387 91.4185 22.704 89.6265 25.008C87.8772 27.2693 85.5732 28.9333 82.7145 30L93.6585 46ZM82.3305 16.624V16.496C82.3305 14.3627 81.6478 12.7627 80.2825 11.696C78.9172 10.6293 77.0185 10.096 74.5865 10.096H64.7945V22.96H74.7785C77.2105 22.96 79.0665 22.384 80.3465 21.232C81.6692 20.08 82.3305 18.544 82.3305 16.624ZM140.549 38.768C139.397 40.0053 138.202 41.1147 136.965 42.096C135.727 43.0773 134.362 43.9307 132.869 44.656C131.418 45.3387 129.818 45.8507 128.069 46.192C126.319 46.576 124.357 46.768 122.181 46.768C118.895 46.768 115.845 46.1707 113.029 44.976C110.213 43.7813 107.781 42.16 105.733 40.112C103.685 38.0213 102.085 35.568 100.933 32.752C99.7805 29.936 99.2045 26.928 99.2045 23.728V23.6C99.2045 20.4 99.7805 17.4133 100.933 14.64C102.085 11.824 103.685 9.37066 105.733 7.28C107.781 5.14666 110.234 3.48266 113.093 2.288C115.951 1.05067 119.109 0.431999 122.565 0.431999C124.655 0.431999 126.554 0.602665 128.261 0.943996C130.01 1.28533 131.589 1.75466 132.997 2.352C134.405 2.94933 135.706 3.67466 136.901 4.528C138.095 5.38133 139.205 6.32 140.229 7.344L133.957 14.576C132.207 12.9973 130.415 11.76 128.581 10.864C126.789 9.968 124.762 9.52 122.501 9.52C120.623 9.52 118.874 9.88266 117.253 10.608C115.674 11.3333 114.309 12.336 113.157 13.616C112.005 14.896 111.109 16.3893 110.469 18.096C109.829 19.76 109.509 21.552 109.509 23.472V23.6C109.509 25.52 109.829 27.3333 110.469 29.04C111.109 30.7467 111.983 32.24 113.093 33.52C114.245 34.8 115.61 35.824 117.189 36.592C118.81 37.3173 120.581 37.68 122.501 37.68C125.061 37.68 127.215 37.2107 128.965 36.272C130.757 35.3333 132.527 34.0533 134.277 32.432L140.549 38.768ZM186.327 46H176.471V28.016H158.295V46H148.439V1.2H158.295V18.928H176.471V1.2H186.327V46ZM207.368 46H197.512V1.2H207.368V46ZM259.652 1.2L241.54 46.32H232.836L214.724 1.2H225.604L237.316 32.752L249.028 1.2H259.652ZM300.676 46H266.564V1.2H300.356V9.968H276.356V19.056H297.476V27.824H276.356V37.232H300.676V46ZM372.978 23.536C372.978 26.6933 372.381 29.68 371.186 32.496C369.991 35.312 368.349 37.7867 366.258 39.92C364.167 42.0107 361.693 43.6747 358.834 44.912C356.018 46.1493 352.989 46.768 349.746 46.768C346.503 46.768 343.474 46.1707 340.658 44.976C337.842 43.7387 335.389 42.0747 333.298 39.984C331.25 37.8933 329.629 35.44 328.434 32.624C327.239 29.808 326.642 26.8213 326.642 23.664C326.642 20.5067 327.239 17.52 328.434 14.704C329.629 11.888 331.271 9.43467 333.362 7.344C335.453 5.21066 337.906 3.52533 340.722 2.288C343.581 1.05067 346.631 0.431999 349.874 0.431999C353.117 0.431999 356.146 1.05067 358.962 2.288C361.778 3.48266 364.21 5.12533 366.258 7.216C368.349 9.30666 369.991 11.76 371.186 14.576C372.381 17.392 372.978 20.3787 372.978 23.536ZM370.29 23.536C370.29 20.6773 369.757 18.0107 368.69 15.536C367.666 13.0187 366.237 10.8427 364.402 9.008C362.61 7.13066 360.455 5.65866 357.938 4.592C355.463 3.52533 352.775 2.992 349.874 2.992C346.93 2.992 344.199 3.54666 341.682 4.656C339.207 5.72266 337.053 7.19466 335.218 9.072C333.383 10.9493 331.933 13.1467 330.866 15.664C329.842 18.1387 329.33 20.8053 329.33 23.664C329.33 26.5227 329.842 29.2107 330.866 31.728C331.89 34.2027 333.319 36.3787 335.154 38.256C336.989 40.0907 339.143 41.5413 341.618 42.608C344.135 43.6747 346.845 44.208 349.746 44.208C352.69 44.208 355.399 43.6747 357.874 42.608C360.391 41.4987 362.567 40.0053 364.402 38.128C366.237 36.2507 367.666 34.0747 368.69 31.6C369.757 29.0827 370.29 26.3947 370.29 23.536ZM360.882 18.736C360.882 20.784 360.391 22.4267 359.41 23.664C358.429 24.9013 357.149 25.8187 355.57 26.416L361.586 35.248H355.25L350.002 27.312H345.714V35.248H340.274V10.608H351.218C354.162 10.608 356.509 11.3333 358.258 12.784C360.007 14.192 360.882 16.176 360.882 18.736ZM355.378 19.056C355.378 17.8187 354.994 16.9013 354.226 16.304C353.458 15.7067 352.391 15.408 351.026 15.408H345.714V22.64H351.154C352.519 22.64 353.565 22.32 354.29 21.68C355.015 20.9973 355.378 20.1227 355.378 19.056Z" fill="black"/>
</svg>
